<?xml version="1.0" encoding="utf-8"?>
<svg version="1.1" xmlns="http://www.w3.org/2000/svg" xmlns:xlink="http://www.w3.org/1999/xlink" x="0px" y="0px"
	 viewBox="0 0 64 64" style="enable-background:new 0 0 64 64;" xml:space="preserve">
<rect fill="#12100e" width="64" height="64"/>
<path fill="#ffffff" d="M15.27,21.4c0.05-0.53-0.15-1.05-0.54-1.4l-4.01-4.84v-0.72h12.46l9.63,21.13l8.47-21.13h11.88v0.72l-3.43,3.29
	c-0.3,0.23-0.44,0.6-0.38,0.96V43.6c-0.06,0.37,0.09,0.74,0.38,0.96l3.35,3.29v0.72H36.23v-0.72l3.47-3.37
	c0.34-0.34,0.34-0.44,0.34-0.96V23.97l-9.65,24.52h-1.3L17.84,23.97v16.43c-0.09,0.69,0.14,1.39,0.62,1.89l4.52,5.48v0.72H10.17
	v-0.72l4.52-5.48c0.48-0.5,0.7-1.2,0.58-1.89V21.4z"/>
</svg>
