<?xml version="1.0" encoding="UTF-8" standalone="no"?>
<svg
   xmlns:dc="http://purl.org/dc/elements/1.1/"
   xmlns:cc="http://creativecommons.org/ns#"
   xmlns:rdf="http://www.w3.org/1999/02/22-rdf-syntax-ns#"
   xmlns:svg="http://www.w3.org/2000/svg"
   xmlns="http://www.w3.org/2000/svg"
   xmlns:sodipodi="http://sodipodi.sourceforge.net/DTD/sodipodi-0.dtd"
   xmlns:inkscape="http://www.inkscape.org/namespaces/inkscape"
   inkscape:version="1.0 (4035a4fb49, 2020-05-01)"
   inkscape:export-ydpi="96.00132"
   inkscape:export-xdpi="96.00132"
   sodipodi:docname="logo-gis-stack-exchange.svg"
   id="svg106"
   viewBox="0 0 64 64"
   version="1.1">
  <sodipodi:namedview
     inkscape:current-layer="svg106"
     inkscape:window-maximized="1"
     inkscape:window-y="-8"
     inkscape:window-x="-8"
     inkscape:cy="32"
     inkscape:cx="32"
     inkscape:zoom="11.484375"
     showgrid="false"
     id="namedview108"
     inkscape:window-height="1057"
     inkscape:window-width="1920"
     inkscape:pageshadow="2"
     inkscape:pageopacity="0"
     guidetolerance="10"
     gridtolerance="10"
     objecttolerance="10"
     borderopacity="1"
     bordercolor="#666666"
     pagecolor="#ffffff" />
  <metadata
     id="metadata2">
    <rdf:RDF>
      <cc:Work
         rdf:about="">
        <dc:format>image/svg+xml</dc:format>
        <dc:type
           rdf:resource="http://purl.org/dc/dcmitype/StillImage" />
        <dc:title />
      </cc:Work>
    </rdf:RDF>
  </metadata>
  <defs
     id="defs68">
    <linearGradient
       gradientUnits="userSpaceOnUse"
       gradientTransform="matrix(.99457 0 0 1.0055 -47.87 4.3571)"
       y2="30.025"
       y1="21.702"
       x2="1.2645"
       x1="52.02"
       id="h">
      <stop
         id="stop4"
         offset="0"
         stop-color="#FFF" />
      <stop
         id="stop6"
         offset=".29"
         stop-color="#FFFEFD" />
      <stop
         id="stop8"
         offset=".44"
         stop-color="#FFFBF5" />
      <stop
         id="stop10"
         offset=".55"
         stop-color="#FFF5E8" />
      <stop
         id="stop12"
         offset=".65"
         stop-color="#FEEDD5" />
      <stop
         id="stop14"
         offset=".74"
         stop-color="#FEE3BC" />
      <stop
         id="stop16"
         offset=".82"
         stop-color="#FDD79E" />
      <stop
         id="stop18"
         offset=".9"
         stop-color="#FCC879" />
      <stop
         id="stop20"
         offset=".97"
         stop-color="#FBB751" />
      <stop
         id="stop22"
         offset=".99"
         stop-color="#FBB040" />
    </linearGradient>
    <linearGradient
       gradientUnits="userSpaceOnUse"
       gradientTransform="matrix(.99457 0 0 1.0055 -47.87 4.3571)"
       y2="30.025"
       y1="21.702"
       x2="1.2645"
       x1="52.02"
       id="g">
      <stop
         id="stop25"
         offset="0"
         stop-color="#FFF" />
      <stop
         id="stop27"
         offset=".21"
         stop-color="#FCFCFC" />
      <stop
         id="stop29"
         offset=".35"
         stop-color="#F3F3F3" />
      <stop
         id="stop31"
         offset=".47"
         stop-color="#E5E4E4" />
      <stop
         id="stop33"
         offset=".58"
         stop-color="#CFCECF" />
      <stop
         id="stop35"
         offset=".68"
         stop-color="#B4B3B3" />
      <stop
         id="stop37"
         offset=".78"
         stop-color="#929091" />
      <stop
         id="stop39"
         offset=".87"
         stop-color="#6A6868" />
      <stop
         id="stop41"
         offset=".96"
         stop-color="#3D3A3B" />
      <stop
         id="stop43"
         offset="1"
         stop-color="#231F20" />
    </linearGradient>
    <linearGradient
       gradientUnits="userSpaceOnUse"
       gradientTransform="scale(.99683 1.0032)"
       y2="9.3311"
       y1="42.498"
       x2="33.452"
       x1="19.716"
       id="f">
      <stop
         id="stop46"
         offset="0"
         stop-color="#FFF" />
      <stop
         id="stop48"
         offset="1"
         stop-color="#8B5E3C" />
    </linearGradient>
    <radialGradient
       gradientUnits="userSpaceOnUse"
       gradientTransform="scale(.99687 1.0031)"
       r="16.448"
       cy="25.921"
       cx="26.582"
       id="e">
      <stop
         id="stop51"
         offset="0"
         stop-color="#FFF" />
      <stop
         id="stop53"
         offset=".27"
         stop-color="#FDFDFC" />
      <stop
         id="stop55"
         offset=".44"
         stop-color="#F6F5F4" />
      <stop
         id="stop57"
         offset=".58"
         stop-color="#EBE8E6" />
      <stop
         id="stop59"
         offset=".7"
         stop-color="#DBD5D1" />
      <stop
         id="stop61"
         offset=".81"
         stop-color="#C6BDB7" />
      <stop
         id="stop63"
         offset=".92"
         stop-color="#ADA096" />
      <stop
         id="stop65"
         offset="1"
         stop-color="#948377" />
    </radialGradient>
  </defs>
  <g
     id="g104"
     transform="matrix(1.2104 0 0 1.2104 -.079952 -.15224)">
    <path
       id="path70"
       fill="#9b794b"
       d="m36.26 51.05c-13.01 5.4-27.92-0.8-33.31-13.84a25.6 25.6 0 0 1 13.8-33.41c13-5.4 27.91 0.79 33.3 13.84a25.6 25.6 0 0 1-13.8 33.4z" />
    <path
       id="path72"
       fill="#f7e1a4"
       d="m52.02 30.2c-2.28 13.93-15.56 23.36-29.66 21.05-14.1-2.3-23.66-15.48-21.38-29.43 2.28-13.94 15.56-23.37 29.66-21.06s23.66 15.49 21.38 29.44z" />
    <ellipse
       id="ellipse74"
       style="mix-blend-mode:multiply"
       opacity=".81"
       fill="url(#h)"
       ry="25.86"
       rx="25.58"
       cy="30.367"
       cx="-21.37"
       transform="rotate(-80.69)" />
    <ellipse
       id="ellipse76"
       style="mix-blend-mode:multiply"
       opacity=".35"
       fill="url(#g)"
       ry="25.86"
       rx="25.58"
       cy="30.367"
       cx="-21.37"
       transform="rotate(-80.69)" />
    <path
       id="path78"
       opacity=".31"
       fill="#fff"
       d="m51.74 30.2c-2.28 14.08-15.44 23.63-29.38 21.32-13.94-2.3-23.39-15.6-21.1-29.69 2.28-14.11 15.44-23.67 29.38-21.36 13.94 2.33 23.4 15.63 21.1 29.73z" />
    <path
       id="path80"
       opacity=".73"
       fill="url(#f)"
       d="m33.4 42.68a17.94 17.94 0 0 1-23.39-9.84 17.94 17.94 0 0 1 9.59-23.5c9.1-3.77 19.57 0.64 23.39 9.84a17.94 17.94 0 0 1-9.59 23.5z" />
    <path
       id="path82"
       stroke-width=".5"
       stroke="#fff"
       opacity=".31"
       fill="none"
       d="m33.4 42.68a17.94 17.94 0 0 1-23.39-9.84 17.94 17.94 0 0 1 9.59-23.5c9.1-3.77 19.57 0.64 23.39 9.84a17.94 17.94 0 0 1-9.59 23.5z" />
    <path
       id="path84"
       stroke-width=".5"
       stroke-opacity=".33"
       stroke="#603913"
       fill="url(#e)"
       d="m32.7 41.04a16.17 16.17 0 0 1-21.07-8.9 16.17 16.17 0 0 1 8.67-21.16c8.21-3.39 17.65 0.6 21.07 8.9a16.17 16.17 0 0 1-8.68 21.16z" />
    <path
       id="path86"
       fill="#837563"
       d="m26.32 10.18h1v5.96h-1zm0 25.7h1v5.96h-1zm-7.82-23.49 0.87-0.5 2.98 5.16-0.87 0.5zm12.71 22.25 0.87-0.5 2.98 5.16-0.87 0.5zm-18.38-16.4 0.5-0.87 5.16 2.99-0.5 0.86zm22.01 12.86 0.5-0.87 5.16 2.98-0.5 0.86zm-24-5.27h5.9v1h-5.9zm25.42 0h5.9v1h-5.9zm-23.41 7.93 5.1-2.95 0.5 0.86-5.1 2.96zm22.02-12.86 5.1-2.94 0.5 0.86-5.1 2.95zm-16.35 18.7 2.95-5.1 0.86 0.49-2.95 5.11zm12.71-22.26 2.95-5.11 0.86 0.5-2.95 5.11z" />
    <path
       id="path88"
       fill="#837563"
       d="m26.32 10.18h1v2.43h-1zm0 29.23h1v2.43h-1zm-2.72-28.96 0.99-0.17 0.42 2.39-0.99 0.17zm4.74 28.65 0.98-0.16 0.41 2.38-0.98 0.17zm-7.36-27.9 0.94-0.35 0.83 2.29-0.94 0.34zm9.89 27.46 0.94-0.34 0.83 2.28-0.94 0.35zm-12.27-26.2 0.87-0.5 1.22 2.12-0.87 0.5zm14.37 25.24 0.86-0.5 1.22 2.1-0.87 0.5zm-16.67-23.7 0.76-0.64 1.56 1.86-0.77 0.64zm18.58 22.38 0.77-0.64 1.56 1.86-0.77 0.65zm-20.5-20.41 0.65-0.77 1.86 1.57-0.65 0.76zm22.14 18.79 0.65-0.76 1.86 1.56-0.65 0.77zm-23.67-16.51 0.5-0.87 2.1 1.22-0.5 0.86zm27.3 15.52-0.18 0.3-2.08-1.2 0.17-0.32zm-28.43-13.01 0.34-0.94 2.28 0.83-0.34 0.94zm27.17 10 0.34-0.94 2.28 0.83-0.34 0.94zm-27.86-7.33 0.18-0.98 2.4 0.42-0.18 0.98zm30.92 5.15-0.06 0.35-2.37-0.42 0.06-0.35zm-31.11-2.75h2.41v1h-2.41zm28.91 0h2.41v1h-2.4zm-28.7 2.75 2.37-0.42 0.17 0.99-2.37 0.42zm28.47-5.08 2.37-0.42 0.17 0.99-2.37 0.42zm-27.8 7.75 2.27-0.82 0.34 0.94-2.27 0.82zm27.13-9.88 2.26-0.82 0.34 0.94-2.26 0.82zm-26 12.39 2.1-1.2 0.5 0.87-2.1 1.2zm25.03-14.61 2.09-1.21 0.5 0.87-2.08 1.2zm-23.49 16.9 1.85-1.55 0.64 0.76-1.85 1.55zm22.15-18.8 1.84-1.55 0.64 0.76-1.84 1.55zm-20.24 20.75 1.55-1.84 0.77 0.64-1.56 1.85zm18.59-22.38 1.55-1.84 0.76 0.64-1.55 1.85zm-16.37 24 1.2-2.09 0.87 0.5-1.2 2.09zm14.46-25.32 1.2-2.08 0.87 0.5-1.2 2.09zm-12 26.51 0.82-2.26 0.94 0.34-0.83 2.26zm9.89-27.47 0.82-2.26 0.94 0.34-0.82 2.27zm-7.27 28.22 0.42-2.38 0.99 0.18-0.42 2.37zm5.03-28.79 0.42-2.38 0.98 0.18-0.41 2.37zm6.37 13.23-4-1a4.83 4.83 0 0 0-4.58-3.78 4.66 4.66 0 0 0-4.42 3.78l-4 1 4 1a4.7 4.7 0 0 0 4.42 3.67 4.87 4.87 0 0 0 4.58-3.67z" />
    <path
       id="path90"
       fill="#1e6a93"
       d="m30.55 27.31a4.17 4.17 0 0 0-4.05-4.28c-2.23 0-4.05 1.93-4.05 4.28 0 0.93 0.3 1.83 0.83 2.57l3.22 5.92 3.24-5.93c0.52-0.75 0.8-1.64 0.8-2.56z" />
    <path
       id="path92"
       opacity=".35"
       fill="#fff"
       d="m26.42 35.4 3.5-6.45c0.6-0.82 0.92-1.81 0.91-2.83a4.55 4.55 0 0 0-4.41-4.67z" />
    <path
       id="path94"
       fill="#ad1b1e"
       d="m30.03 23.02-3.53-6.52-3.5 6.47c-0.6 0.82-1 2.01-1 3.03 0 2.58 2.06 4 4.5 4s4.5-1.44 4.5-4c0-1-0.4-2.17-0.97-2.98z" />
    <path
       id="path96"
       opacity=".35"
       fill="#fff"
       d="m26.5 16.5 3.43 6.47c0.59 0.82 0.9 1.81 0.9 2.83 0 2.58-1.9 4.7-4.33 4.7z" />
    <path
       id="path98"
       opacity=".28"
       fill="#fff"
       d="m26.5 23.5c5.5 0 14.5 4.5 15.5 2 0-8.5-7-15.5-15.5-15.5s-15.5 7-15.5 15.5c1 2.5 10-2 15.5-2z" />
    <path
       id="path100"
       fill="#b12024"
       d="m29.9 11.39-0.32 0.04a0.7 0.7 0 0 0-0.35 0.16 0.56 0.56 0 0 0-0.2 0.35c-0.06 0.25-0.09 0.5-0.1 0.75v3.92h-0.64l-3.39-4.25v2.58c0 0.24 0.02 0.49 0.07 0.73 0.03 0.14 0.1 0.27 0.2 0.36a1 1 0 0 0 0.33 0.16l0.36 0.08v0.3h-2.33v-0.3c0.11 0 0.22-0.03 0.34-0.05a0.96 0.96 0 0 0 0.32-0.14c0.1-0.08 0.18-0.2 0.2-0.34a4 4 0 0 0 0.06-0.76v-2.6c0-0.12-0.02-0.25-0.06-0.37a0.7 0.7 0 0 0-0.18-0.29c-0.1-0.08-0.2-0.16-0.31-0.2a2.59 2.59 0 0 0-0.4-0.13v-0.3h2.04l2.97 3.71v-2.08c0.01-0.25-0.01-0.5-0.06-0.73a0.66 0.66 0 0 0-0.21-0.36 1 1 0 0 0-0.33-0.16l-0.35-0.08v-0.3h2.33v0.3z" />
    <path
       id="path102"
       opacity=".49"
       fill="#fff"
       d="m8.5 24.77c0.78-9.5 8.42-17.02 17.94-17.02s17.22 7.43 18.05 16.89c2.47 0.33 5.3 0.73 7.6 1.2-0.25-14-11.86-25.3-25.64-25.3-13.77-0.01-25.33 11.42-25.52 25.46 2.27-0.47 5.1-0.89 7.56-1.24z" />
  </g>
</svg>
